<svg width="230" height="200" viewBox="0 0 230 200" fill="none" xmlns="http://www.w3.org/2000/svg">
<g clip-path="url(#clip0_17_245)">
<path d="M199.718 26.6815L97.9356 9.76692C86.3795 7.84648 75.415 15.6926 73.4946 27.2487L70.6943 44.099L53.8369 41.2976C42.2804 39.3771 31.3163 47.2229 29.3959 58.7793L18.7667 122.739C16.8463 134.295 24.6846 145.258 36.241 147.179L37.9728 147.467L32.9455 177.718C32.4364 180.781 33.8229 183.849 36.4506 185.482C37.3229 186.031 38.2762 186.376 39.2518 186.538C41.2183 186.865 43.2813 186.423 44.9659 185.218L86.4819 155.528L115.335 160.323C126.891 162.243 137.854 154.405 139.774 142.849L142.576 125.991L145.858 126.536L160.672 164.088C161.677 166.641 163.934 168.4 166.544 168.833C167.209 168.944 167.904 168.974 168.608 168.897C172.033 168.533 174.797 165.93 175.363 162.527L180.39 132.275L182.122 132.563C193.678 134.483 204.641 126.645 206.562 115.089L217.191 51.1287C219.111 39.5727 211.274 28.602 199.718 26.6815ZM128.706 115.914L124.648 140.335C124.114 143.549 121.062 145.731 117.848 145.197L85.8642 139.881C83.8602 139.548 81.7984 140.029 80.1489 141.209L51.1052 161.975L54.3554 142.417C55.0491 138.242 52.2241 134.291 48.0494 133.598L38.7547 132.053C35.5404 131.519 33.3585 128.467 33.8927 125.253L44.5219 61.293C45.056 58.0787 48.1088 55.8894 51.3232 56.4236L75.7438 60.4819L130.416 69.5677C133.631 70.1018 135.811 73.1611 135.277 76.3752L128.706 115.914Z" fill="#F530FF" fill-opacity="0.1"/>
<path d="M70.6123 44.5923L71.1056 44.6742L71.1875 44.181L73.9878 27.3306C75.863 16.0467 86.5702 8.38502 97.8536 10.2602L199.636 27.1748C210.919 29.05 218.573 39.7629 216.698 51.0468L206.068 115.007C204.193 126.291 193.487 133.945 182.204 132.07L180.472 131.782L179.979 131.7L179.897 132.193L174.869 162.445C174.341 165.626 171.757 168.059 168.555 168.399L168.554 168.399C167.898 168.471 167.25 168.444 166.626 168.34C164.186 167.934 162.077 166.29 161.137 163.905L161.137 163.904L146.323 126.353L146.22 126.09L145.94 126.043L142.658 125.498L142.165 125.416L142.083 125.909L139.281 142.767C137.406 154.051 126.7 161.705 115.417 159.83L86.5639 155.035L86.3595 155.001L86.191 155.121L44.6752 184.812C43.1014 185.937 41.1732 186.351 39.3338 186.045C38.4195 185.893 37.5296 185.57 36.7169 185.059L36.7146 185.057C34.2593 183.531 32.9628 180.664 33.4387 177.8L38.466 147.549L38.548 147.055L38.0548 146.973L36.323 146.686C25.039 144.81 17.3848 134.105 19.26 122.821L29.8891 58.8613C31.7644 47.577 42.4711 39.9156 53.7549 41.7908L70.6123 44.5923ZM50.6119 161.893L50.414 163.084L51.396 162.382L80.4397 141.616C81.9816 140.513 83.9094 140.063 85.7823 140.375L117.766 145.69C121.253 146.269 124.562 143.903 125.141 140.417L129.2 115.996L135.77 76.4571C136.35 72.9715 133.986 69.654 130.498 69.0744L75.8257 59.9887L51.4051 55.9303C47.9175 55.3508 44.6079 57.7251 44.0286 61.2111L33.3995 125.171C32.82 128.658 35.186 131.967 38.6728 132.546L47.9674 134.091C51.8697 134.739 54.5106 138.433 53.8621 142.335L50.6119 161.893Z" stroke="white" stroke-opacity="0.04"/>
</g>
<defs>
<clipPath id="clip0_17_245">
<rect width="230" height="200" fill="white"/>
</clipPath>
</defs>
</svg>
