<svg width="230" height="179" viewBox="0 0 230 179" fill="none" xmlns="http://www.w3.org/2000/svg">
<path d="M71.8295 149.635C69.5463 149.638 67.3406 148.808 65.6252 147.301L8.16171 97.0202C7.15106 96.1354 6.34116 95.0448 5.78628 93.8214C5.23139 92.5981 4.94434 91.2704 4.94434 89.9271C4.94434 88.5838 5.23139 87.256 5.78628 86.0327C6.34116 84.8094 7.15106 83.7188 8.16171 82.8339L65.6252 32.5533C67.5071 30.9067 69.9659 30.075 72.461 30.2413C74.956 30.4075 77.2827 31.5582 78.9294 33.44C80.5761 35.3218 81.4077 37.7807 81.2415 40.2757C81.0752 42.7707 79.9246 45.0975 78.0428 46.7441L28.6825 89.9271L78.0383 133.11C79.4828 134.373 80.5076 136.046 80.9758 137.907C81.444 139.768 81.3333 141.727 80.6584 143.523C79.9836 145.32 78.7768 146.867 77.1992 147.959C75.6215 149.051 73.7483 149.636 71.8295 149.635Z" fill="#3075FF" fill-opacity="0.1"/>
<path d="M71.8297 149.135H71.829C69.6675 149.137 67.5792 148.352 65.9552 146.925L65.9545 146.925L8.49108 96.644C8.49104 96.644 8.491 96.644 8.49097 96.6439C7.53396 95.806 6.76706 94.7733 6.24162 93.6149C5.71617 92.4565 5.44434 91.1991 5.44434 89.9271C5.44434 88.655 5.71617 87.3977 6.24162 86.2392C6.76706 85.0809 7.53396 84.0481 8.49097 83.2102C8.491 83.2102 8.49104 83.2101 8.49108 83.2101L65.9545 32.9296L65.6654 32.5992L65.9545 32.9296C67.7365 31.3703 70.065 30.5827 72.4277 30.7402C74.7904 30.8976 76.9938 31.9872 78.5531 33.7692C80.1125 35.5513 80.9 37.8797 80.7426 40.2424C80.5851 42.6051 79.4955 44.8085 77.7135 46.3678L28.3533 89.5508L27.9231 89.9271L28.3532 90.3034L77.709 133.486L77.7092 133.486C79.0771 134.682 80.0476 136.267 80.4909 138.029C80.9343 139.791 80.8294 141.647 80.1904 143.348C79.5513 145.048 78.4085 146.514 76.9146 147.548C75.4206 148.582 73.6467 149.136 71.8297 149.135Z" stroke="url(#paint0_linear_15_43)" stroke-opacity="0.04"/>
<path d="M158.025 149.635C156.105 149.637 154.232 149.053 152.653 147.961C151.075 146.869 149.867 145.322 149.192 143.526C148.517 141.729 148.406 139.769 148.874 137.908C149.342 136.047 150.367 134.373 151.811 133.11L201.172 89.9271L151.816 46.7441C149.934 45.0975 148.783 42.7707 148.617 40.2757C148.451 37.7807 149.283 35.3218 150.929 33.44C152.576 31.5582 154.903 30.4075 157.398 30.2413C159.893 30.075 162.352 30.9067 164.233 32.5533L221.697 82.8339C222.708 83.7188 223.517 84.8094 224.072 86.0327C224.627 87.256 224.914 88.5838 224.914 89.9271C224.914 91.2703 224.627 92.5981 224.072 93.8214C223.517 95.0448 222.708 96.1354 221.697 97.0202L164.233 147.301C162.517 148.809 160.309 149.639 158.025 149.635Z" fill="#3075FF" fill-opacity="0.1"/>
<path d="M158.026 149.135H158.024C156.207 149.137 154.432 148.584 152.938 147.55C151.443 146.516 150.3 145.051 149.66 143.35C149.02 141.648 148.915 139.793 149.358 138.03C149.802 136.268 150.772 134.683 152.14 133.486L152.141 133.486L201.501 90.3034L201.931 89.9271L201.501 89.5508L152.145 46.3678C150.363 44.8085 149.274 42.6051 149.116 40.2424C148.959 37.8797 149.746 35.5513 151.306 33.7692C152.865 31.9872 155.068 30.8976 157.431 30.7402C159.794 30.5827 162.122 31.3703 163.904 32.9296L163.904 32.9296L221.368 83.2101C222.325 84.048 223.092 85.0808 223.617 86.2392C224.142 87.3977 224.414 88.655 224.414 89.9271C224.414 91.1991 224.142 92.4565 223.617 93.6149C223.092 94.7733 222.325 95.8061 221.368 96.644L163.904 146.925L163.903 146.925C162.279 148.353 160.189 149.139 158.026 149.135Z" stroke="url(#paint1_linear_15_43)" stroke-opacity="0.04"/>
<path d="M93.3782 171.184C91.91 171.184 90.4622 170.841 89.1502 170.182C87.8381 169.523 86.698 168.567 85.8207 167.39C84.9435 166.213 84.3533 164.847 84.0972 163.401C83.8411 161.955 83.9262 160.47 84.3456 159.063L127.443 15.404C127.768 14.185 128.334 13.0435 129.108 12.0471C129.882 11.0508 130.848 10.2199 131.948 9.6037C133.049 8.98748 134.262 8.59847 135.516 8.4597C136.77 8.32093 138.039 8.43523 139.248 8.79584C140.457 9.15644 141.581 9.756 142.554 10.559C143.527 11.362 144.329 12.3521 144.913 13.4707C145.496 14.5893 145.849 15.8136 145.95 17.071C146.052 18.3285 145.9 19.5935 145.504 20.7913L102.406 164.45C101.826 166.395 100.635 168.1 99.0083 169.313C97.3818 170.527 95.4073 171.183 93.3782 171.184Z" fill="#3075FF" fill-opacity="0.1"/>
<path d="M127.924 15.5403L127.922 15.5477L84.8248 159.206L127.924 15.5403ZM127.924 15.5403L127.926 15.5327M127.924 15.5403L127.926 15.5327M127.926 15.5327C128.234 14.3783 128.77 13.2973 129.503 12.3538C130.235 11.4104 131.15 10.6235 132.193 10.04C133.235 9.45646 134.384 9.08808 135.571 8.95667C136.759 8.82526 137.96 8.9335 139.105 9.27497C140.25 9.61645 141.315 10.1842 142.236 10.9446C143.157 11.7051 143.917 12.6427 144.469 13.7019C145.022 14.7612 145.356 15.9205 145.452 17.1113C145.548 18.3021 145.404 19.5 145.029 20.6342L145.029 20.6341M127.926 15.5327L145.029 20.6341M145.029 20.6341L145.025 20.6476M145.029 20.6341L145.025 20.6476M145.025 20.6476L101.927 164.306L101.927 164.307M145.025 20.6476L101.927 164.307M101.927 164.307C101.378 166.149 100.25 167.764 98.7094 168.913C97.1691 170.062 95.2993 170.683 93.3778 170.684C91.9877 170.684 90.6169 170.359 89.3745 169.735M101.927 164.307L89.3745 169.735M89.3745 169.735C88.132 169.111 87.0524 168.206 86.2216 167.091M89.3745 169.735L86.2216 167.091M86.2216 167.091C85.3909 165.976 84.832 164.683 84.5895 163.314M86.2216 167.091L84.5895 163.314M84.5895 163.314C84.347 161.945 84.4275 160.539 84.8245 159.207L84.5895 163.314Z" stroke="url(#paint2_linear_15_43)" stroke-opacity="0.04"/>
<defs>
<linearGradient id="paint0_linear_15_43" x1="43.1033" y1="30.2204" x2="43.1033" y2="149.635" gradientUnits="userSpaceOnUse">
<stop stop-color="white" stop-opacity="0"/>
<stop offset="1" stop-color="white"/>
</linearGradient>
<linearGradient id="paint1_linear_15_43" x1="186.752" y1="30.2204" x2="186.752" y2="149.635" gradientUnits="userSpaceOnUse">
<stop stop-color="white" stop-opacity="0"/>
<stop offset="1" stop-color="white"/>
</linearGradient>
<linearGradient id="paint2_linear_15_43" x1="114.967" y1="8.40249" x2="114.967" y2="171.184" gradientUnits="userSpaceOnUse">
<stop stop-color="white" stop-opacity="0"/>
<stop offset="1" stop-color="white"/>
</linearGradient>
</defs>
</svg>
