<svg width="175" height="175" viewBox="0 0 175 175" fill="none" xmlns="http://www.w3.org/2000/svg">
<path d="M140.946 41.4258L95.2268 16.78C90.4143 14.155 84.581 14.155 79.7685 16.78L34.0496 41.4258C30.6955 43.2487 28.6538 46.7487 28.6538 50.7591C28.6538 54.6966 30.6955 58.2696 34.0496 60.0925L79.7685 84.7387C82.1747 86.0512 84.8726 86.7074 87.4976 86.7074C90.1226 86.7074 92.8205 86.0512 95.2268 84.7387L140.946 60.0925C144.3 58.2696 146.341 54.7696 146.341 50.7591C146.341 46.7487 144.3 43.2487 140.946 41.4258Z" fill="#F530FF" fill-opacity="0.1"/>
<path d="M94.9874 17.2189L94.9895 17.2201L140.707 41.8651C140.707 41.8653 140.707 41.8655 140.708 41.8657C143.893 43.5971 145.841 46.9236 145.841 50.7591C145.841 54.5949 143.893 57.9215 140.707 59.6528C140.707 59.653 140.707 59.6531 140.707 59.6532L94.9895 84.2985L94.9874 84.2997C92.6564 85.5712 90.0411 86.2074 87.4976 86.2074C84.9542 86.2074 82.3389 85.5712 80.0079 84.2997L80.0057 84.2985L34.2884 59.6532C34.2882 59.653 34.288 59.6529 34.2878 59.6528C31.1042 57.9223 29.1538 54.5239 29.1538 50.7591C29.1538 46.9235 31.1025 43.5969 34.2877 41.8655C34.2879 41.8654 34.2882 41.8652 34.2884 41.8651L80.0057 17.2201L80.0079 17.2189C84.6712 14.6753 90.3241 14.6753 94.9874 17.2189Z" stroke="white" stroke-opacity="0.04"/>
<path d="M72.2606 93.2604L29.6772 71.9688C26.396 70.3646 22.6043 70.5104 19.5418 72.4063C16.4064 74.375 14.5835 77.6563 14.5835 81.3021V121.479C14.5835 128.406 18.4481 134.677 24.646 137.813L67.1564 159.104C68.6147 159.833 70.2189 160.198 71.8231 160.198C73.7189 160.198 75.6147 159.688 77.2918 158.667C80.4272 156.771 82.2502 153.417 82.2502 149.771V109.594C82.3231 102.594 78.4585 96.3229 72.2606 93.2604Z" fill="#F530FF" fill-opacity="0.1"/>
<path d="M72.0391 93.7087L72.037 93.7077L29.4576 72.418C29.457 72.4176 29.4563 72.4173 29.4557 72.417C26.3243 70.8869 22.7168 71.0295 19.8063 72.8306C16.8155 74.7092 15.0835 77.8311 15.0835 81.3021V121.479C15.0835 128.217 18.8411 134.315 24.8711 137.366C24.8713 137.366 24.8715 137.366 24.8717 137.366L67.38 158.657L72.0391 93.7087ZM72.0391 93.7087C78.0641 96.6858 81.8211 102.78 81.7502 109.589V109.594V149.771C81.7502 153.248 80.0136 156.437 77.0331 158.239L77.0319 158.24M72.0391 93.7087L77.0319 158.24M77.0319 158.24C75.4348 159.212 73.6293 159.698 71.8231 159.698C70.2944 159.698 68.7671 159.35 67.3803 158.657L77.0319 158.24Z" stroke="white" stroke-opacity="0.04"/>
<path d="M155.463 72.4073C152.328 70.5114 148.536 70.2927 145.328 71.9698L102.817 93.2612C96.6195 96.3966 92.7549 102.594 92.7549 109.594V149.772C92.7549 153.417 94.5778 156.772 97.7132 158.667C99.3903 159.688 101.286 160.199 103.182 160.199C104.786 160.199 106.39 159.834 107.849 159.105L150.359 137.813C156.557 134.678 160.422 128.48 160.422 121.48V81.3028C160.422 77.657 158.599 74.3757 155.463 72.4073Z" fill="#F530FF" fill-opacity="0.1"/>
<path d="M145.552 72.4168L145.552 72.4169L145.559 72.4129C148.601 70.823 152.205 71.0231 155.201 72.8329C158.19 74.7114 159.922 77.8327 159.922 81.3028V121.48C159.922 128.289 156.165 134.315 150.134 137.367C150.134 137.367 150.134 137.367 150.133 137.367L107.625 158.658C107.625 158.658 107.625 158.658 107.625 158.658C106.238 159.351 104.711 159.699 103.182 159.699C101.376 159.699 99.5702 159.212 97.9732 158.24L97.9719 158.24C94.9914 156.437 93.2549 153.248 93.2549 149.772V109.594C93.2549 102.785 97.0114 96.759 103.042 93.7077C103.043 93.7076 103.043 93.7074 103.043 93.7073L145.552 72.4168Z" stroke="white" stroke-opacity="0.04"/>
</svg>
