<svg width="213" height="213" viewBox="0 0 213 213" fill="none" xmlns="http://www.w3.org/2000/svg">
<g clip-path="url(#clip0_15_98)">
<path d="M40.5824 150.714C24.8987 156.454 7.59159 148.275 1.86101 132.44C-3.87845 116.606 4.18518 99.1126 19.8423 93.3731L48.6017 82.8434L69.3418 140.185L40.5824 150.714ZM96.3092 178.853C92.4327 177.513 89.0883 175.038 86.6488 171.756L72.145 152.223L42.8622 162.947L65.9442 192.691C68.5345 196.027 72.9522 197.304 76.9175 195.849L96.5753 188.664C98.6068 187.919 99.964 185.941 99.9552 183.758C99.9374 181.576 98.5713 179.642 96.5044 178.924L96.3092 178.853ZM60.0273 78.6652L80.7674 136.007C99.8842 132.307 125.805 132.449 159.683 139.564L118.211 24.8899C96.2471 52.9663 76.8465 69.2798 60.0273 78.6652ZM155.788 51.1477C163.382 54.7937 169.592 61.3404 172.581 69.9274C175.588 78.5055 174.834 87.4917 171.188 95.0852L183.67 101.1C188.859 90.3127 189.95 77.5386 185.683 65.35C181.416 53.1526 172.608 43.847 161.83 38.6575L155.788 51.1477ZM166.327 29.281C179.509 35.6237 190.261 47.005 195.477 61.9081C200.693 76.8112 199.362 92.4328 193.02 105.615L205.82 111.789C213.742 95.3158 215.392 75.8176 208.89 57.2065C202.369 38.6043 188.957 24.402 172.501 16.4803L166.327 29.281Z" fill="#3075FF" fill-opacity="0.1"/>
<path d="M2.33116 132.27L2.33108 132.27C-3.31588 116.691 4.61962 99.486 20.0142 93.8426C20.0142 93.8426 20.0143 93.8426 20.0144 93.8426L48.3022 83.4855L68.7022 139.886L40.4106 150.245C24.991 155.888 7.96907 147.849 2.33116 132.27ZM86.2474 172.054L86.2475 172.054C88.7453 175.415 92.1707 177.951 96.1423 179.324C96.1435 179.325 96.1447 179.325 96.1459 179.325L96.3335 179.394L96.3402 179.396C98.2047 180.044 99.4391 181.789 99.4552 183.763C99.4623 185.737 98.2327 187.524 96.4032 188.195L76.7458 195.38L76.7453 195.38C72.9852 196.76 68.7965 195.549 66.3391 192.385L43.6768 163.182L71.9662 152.82L86.2474 172.054ZM185.211 65.5151L185.683 65.35L185.211 65.5152C189.373 77.4035 188.383 89.8543 183.434 100.431L171.852 94.8499C175.368 87.2386 176.046 78.3007 173.053 69.762C170.077 61.2146 163.958 54.6584 156.455 50.9174L162.061 39.327C172.52 44.5017 181.049 53.6176 185.211 65.5151ZM81.0925 135.435L60.6418 78.894C77.3044 69.5164 96.4437 53.3836 118.048 25.9084L158.908 138.891C125.659 131.999 100.083 131.835 81.0925 135.435ZM195.949 61.7429C190.747 46.8799 180.085 35.4885 166.994 29.0494L172.734 17.1492C188.869 25.0566 202.003 39.069 208.418 57.3719C214.815 75.6829 213.266 94.8578 205.585 111.12L193.685 105.381C199.897 92.1797 201.151 76.6068 195.949 61.7429Z" stroke="white" stroke-opacity="0.04"/>
</g>
<defs>
<clipPath id="clip0_15_98">
<rect width="212.901" height="212.901" fill="white" transform="translate(0.00708008 0.00714111)"/>
</clipPath>
</defs>
</svg>
