<svg width="142" height="142" viewBox="0 0 142 142" fill="none" xmlns="http://www.w3.org/2000/svg">
<path d="M16.6454 91.5111L9.15093 123.856C8.89239 125.038 8.90125 126.263 9.17687 127.442C9.45248 128.62 9.98787 129.722 10.7439 130.667C11.5 131.612 12.4577 132.377 13.5469 132.904C14.6362 133.432 15.8295 133.709 17.0398 133.717C17.6038 133.774 18.172 133.774 18.7359 133.717L51.2776 126.222L113.758 63.9789L78.8887 29.1889L16.6454 91.5111Z" fill="#F530FF" fill-opacity="0.1"/>
<path d="M17.09 133.219L17.0665 133.217L17.0428 133.217C15.907 133.21 14.7871 132.949 13.7649 132.454C12.7426 131.959 11.8439 131.242 11.1344 130.355C10.4248 129.468 9.92238 128.434 9.66373 127.328C9.40531 126.223 9.39678 125.074 9.63873 123.965C9.63895 123.964 9.63917 123.963 9.63938 123.962L17.1002 91.7633L78.8893 29.8958L113.049 63.9786L51.026 125.767L18.6548 133.222C18.1344 133.273 17.6103 133.272 17.09 133.219Z" stroke="white" stroke-opacity="0.04"/>
<path d="M133.401 32.8178L110.129 9.54556C108.599 8.02326 106.528 7.16868 104.37 7.16868C102.212 7.16868 100.141 8.02326 98.6111 9.54556L85.6733 22.4833L120.503 57.3128L133.441 44.375C134.198 43.614 134.797 42.7112 135.205 41.7183C135.613 40.7253 135.821 39.6617 135.817 38.5882C135.814 37.5148 135.598 36.4526 135.184 35.4624C134.769 34.4722 134.163 33.5736 133.401 32.8178Z" fill="#F530FF" fill-opacity="0.1"/>
<path d="M133.048 33.1713L133.049 33.1728C133.765 33.8823 134.333 34.726 134.723 35.6555C135.112 36.585 135.314 37.5822 135.317 38.5899C135.321 39.5976 135.126 40.5962 134.743 41.5283C134.36 42.4605 133.797 43.308 133.086 44.0223L120.503 56.6057L86.3804 22.4833L98.9638 9.9C98.9639 9.89983 98.9641 9.89967 98.9643 9.8995C100.401 8.47074 102.344 7.66868 104.37 7.66868C106.396 7.66868 108.34 8.47077 109.776 9.89959C109.776 9.89973 109.776 9.89987 109.776 9.9L133.048 33.1713Z" stroke="white" stroke-opacity="0.04"/>
</svg>
