<svg width="252" height="196" viewBox="0 0 252 196" fill="none" xmlns="http://www.w3.org/2000/svg">
<path d="M165.375 98C155.255 98 145.471 93.4817 137.812 85.2819C130.366 77.2838 125.818 66.6181 125.015 55.2584C124.159 43.1408 127.855 31.9977 135.42 23.8766C142.985 15.7555 153.562 11.375 165.375 11.375C177.104 11.375 187.71 15.8342 195.251 23.9356C202.865 32.1158 206.571 43.2392 205.714 55.2535C204.893 66.628 200.35 77.2887 192.918 85.2769C185.279 93.4817 175.499 98 165.375 98Z" fill="#30FF91" fill-opacity="0.1"/>
<path d="M165.375 97.5C155.41 97.5 145.754 93.0517 138.178 84.9412C130.813 77.0304 126.309 66.474 125.514 55.2232L125.015 55.2584L125.514 55.2232C124.667 43.2294 128.325 32.2268 135.786 24.2174C143.249 16.206 153.689 11.875 165.375 11.875C176.974 11.875 187.445 16.2831 194.885 24.2763C202.396 32.3459 206.063 43.3292 205.216 55.2175C204.402 66.4839 199.902 77.0356 192.552 84.9364C184.996 93.0516 175.345 97.5 165.375 97.5Z" stroke="white" stroke-opacity="0.04"/>
<path d="M230.26 184.625H100.495C98.4085 184.636 96.3474 184.169 94.4702 183.258C92.593 182.348 90.9497 181.019 89.6667 179.373C88.3058 177.59 87.366 175.521 86.9177 173.323C86.4694 171.125 86.5241 168.854 87.0778 166.68C91.222 150.039 101.489 136.238 116.767 126.773C130.326 118.377 147.587 113.75 165.375 113.75C183.512 113.75 200.32 118.18 213.959 126.571C229.271 135.987 239.553 149.867 243.677 166.709C244.224 168.885 244.273 171.156 243.819 173.353C243.366 175.55 242.422 177.617 241.059 179.398C239.777 181.036 238.138 182.358 236.266 183.264C234.394 184.17 232.34 184.636 230.26 184.625Z" fill="#30FF91" fill-opacity="0.1"/>
<path d="M117.03 127.198C130.502 118.856 147.669 114.25 165.375 114.25C183.432 114.25 200.147 118.66 213.697 126.997L213.697 126.997C228.902 136.347 239.1 150.119 243.191 166.828L243.192 166.831C243.721 168.934 243.768 171.129 243.33 173.252C242.892 175.375 241.98 177.371 240.663 179.092C239.429 180.668 237.85 181.942 236.048 182.814C234.245 183.687 232.266 184.135 230.263 184.125H230.26L100.495 184.125L100.492 184.125C98.4823 184.136 96.4968 183.685 94.6884 182.808C92.8808 181.931 91.2983 180.652 90.0626 179.068C88.7483 177.345 87.8407 175.347 87.4076 173.223C86.9744 171.099 87.0272 168.904 87.5623 166.803L87.563 166.801C91.6741 150.293 101.857 136.598 117.03 127.198ZM117.03 127.198L116.767 126.773M117.03 127.198L116.767 126.773M116.767 126.773C101.489 136.238 91.222 150.039 87.0778 166.68L243.677 166.709C239.553 149.867 229.271 135.987 213.959 126.571C200.32 118.18 183.512 113.75 165.375 113.75C147.587 113.75 130.326 118.377 116.767 126.773Z" stroke="white" stroke-opacity="0.04"/>
<path d="M72.3515 99.9688C55.0314 99.9688 39.8032 83.8644 38.3906 64.0735C37.6917 53.9345 40.8515 44.5583 47.2499 37.6824C53.5795 30.8755 62.5078 27.125 72.3515 27.125C82.1953 27.125 91.0546 30.8952 97.4186 37.7415C103.866 44.6715 107.016 54.028 106.278 64.0834C104.865 83.8693 89.6421 99.9688 72.3515 99.9688Z" fill="#30FF91" fill-opacity="0.1"/>
<path d="M47.616 38.023L47.6161 38.0229C53.8448 31.3244 62.6372 27.625 72.3515 27.625C82.0636 27.625 90.7878 31.3425 97.0524 38.0819L97.0525 38.0821C103.399 44.9032 106.508 54.1201 105.779 64.0467L105.779 64.0478C104.381 83.6318 89.3238 99.4688 72.3515 99.4688C55.3497 99.4688 40.2878 83.627 38.8893 64.0385C38.1993 54.0258 41.3197 44.7891 47.616 38.023Z" stroke="white" stroke-opacity="0.04"/>
<path d="M104.669 115.448C96.0109 111.215 84.7743 109.099 72.3564 109.099C57.8566 109.099 43.7751 112.879 32.7009 119.74C20.1452 127.531 11.6992 138.876 8.28837 152.574C7.78921 154.544 7.742 156.602 8.15026 158.593C8.55853 160.584 9.41169 162.456 10.6459 164.071C11.8171 165.575 13.3175 166.79 15.0317 167.622C16.7459 168.455 18.6282 168.884 20.534 168.875H75.1668C76.0889 168.875 76.9817 168.551 77.6896 167.96C78.3975 167.369 78.8755 166.549 79.0403 165.641C79.0945 165.331 79.1634 165.021 79.2421 164.716C83.4159 147.952 93.1956 133.787 107.646 123.461C108.178 123.078 108.605 122.568 108.89 121.978C109.175 121.388 109.308 120.736 109.277 120.082C109.246 119.427 109.053 118.791 108.714 118.23C108.375 117.669 107.901 117.202 107.336 116.87C106.563 116.418 105.678 115.94 104.669 115.448Z" fill="#30FF91" fill-opacity="0.1"/>
<path d="M104.449 115.897L104.449 115.897C95.8798 111.708 84.7242 109.599 72.3564 109.599C57.9388 109.599 43.9506 113.358 32.9642 120.165C20.5132 127.891 12.1512 139.13 8.77355 152.695L8.77306 152.697C8.29241 154.594 8.24695 156.575 8.64007 158.492C9.03304 160.409 9.85409 162.211 11.0418 163.766C12.1658 165.208 13.6054 166.374 15.2502 167.173C16.8956 167.972 18.7024 168.383 20.5317 168.375L20.534 168.375L75.1668 168.375C75.9718 168.375 76.7512 168.092 77.3692 167.576C77.9867 167.061 78.4039 166.345 78.5481 165.554C78.5482 165.553 78.5483 165.553 78.5484 165.552L79.0403 165.641C79.0945 165.331 79.1634 165.021 79.2421 164.716L104.449 115.897ZM104.449 115.897C105.447 116.384 106.322 116.856 107.083 117.302C107.577 117.591 107.99 117.999 108.286 118.489C108.582 118.978 108.751 119.534 108.778 120.105C108.804 120.676 108.688 121.246 108.44 121.761C108.191 122.276 107.818 122.72 107.355 123.055C92.8117 133.447 82.961 147.711 78.7573 164.594L104.449 115.897Z" stroke="white" stroke-opacity="0.04"/>
</svg>
