<svg width="132" height="188" viewBox="0 0 132 188" fill="none" xmlns="http://www.w3.org/2000/svg">
<mask id="path-1-inside-1_17_215" fill="white">
<path fill-rule="evenodd" clip-rule="evenodd" d="M10.7582 8.62465C5.86243 13.0579 3.0494 19.008 2.93791 25.1661L0.415554 164.48C0.304059 170.638 2.90323 176.499 7.64129 180.775C12.3793 185.051 18.8682 187.39 25.6803 187.278L102.736 186.017C109.548 185.906 116.125 183.353 121.021 178.919C125.917 174.486 128.73 168.536 128.841 162.378L131.364 23.0641C131.475 16.906 128.876 11.0445 124.138 6.76895C119.4 2.49338 112.911 0.154034 106.099 0.265529L29.0434 1.52671C22.2313 1.6382 15.6539 4.19141 10.7582 8.62465ZM74.0683 143.462C76.4373 145.599 77.7369 148.53 77.6811 151.609C77.6254 154.688 76.2189 157.663 73.771 159.88C71.3231 162.097 68.0344 163.373 64.6284 163.429C61.2223 163.485 57.9779 162.315 55.6089 160.177C53.2399 158.039 51.9403 155.109 51.996 152.03C52.0518 148.951 53.4583 145.976 55.9061 143.759C58.354 141.542 61.6427 140.266 65.0488 140.21C68.4548 140.154 71.6992 141.324 74.0683 143.462ZM60.1944 125.973C59.613 125.972 59.0398 125.837 58.5203 125.576C58.0007 125.315 57.5493 124.936 57.202 124.47C56.8546 124.004 56.6209 123.463 56.5195 122.891C56.4181 122.318 56.4518 121.73 56.6179 121.173L73.6825 64.2914C73.811 63.8087 74.0351 63.3567 74.3415 62.9622C74.6479 62.5677 75.0304 62.2387 75.4662 61.9947C75.9021 61.7507 76.3825 61.5967 76.879 61.5418C77.3755 61.4868 77.8779 61.5321 78.3566 61.6749C78.8353 61.8176 79.2804 62.055 79.6657 62.373C80.0509 62.6909 80.3685 63.083 80.5994 63.5259C80.8304 63.9688 80.9701 64.4535 81.0104 64.9514C81.0506 65.4493 80.9905 65.9502 80.8336 66.4245L63.769 123.306C63.5395 124.076 63.0676 124.752 62.4236 125.232C61.7796 125.712 60.9978 125.972 60.1944 125.973ZM49.2055 116.516C49.8847 117.113 50.7581 117.441 51.6621 117.44C52.4218 117.441 53.1635 117.209 53.7882 116.777C54.4129 116.344 54.8907 115.732 55.1579 115.02C55.4251 114.309 55.4689 113.533 55.2836 112.797C55.0982 112.06 54.6924 111.397 54.1204 110.897L34.578 93.7988L54.1222 76.7005C54.8673 76.0485 55.3229 75.1272 55.3888 74.1393C55.4546 73.1514 55.1253 72.1778 54.4733 71.4327C53.8213 70.6876 52.9 70.232 51.9121 70.1662C50.9242 70.1003 49.9506 70.4297 49.2055 71.0816L26.4528 90.9903C26.0526 91.3406 25.7319 91.7725 25.5122 92.2569C25.2925 92.7412 25.1789 93.267 25.1789 93.7988C25.1789 94.3307 25.2925 94.8564 25.5122 95.3408C25.7319 95.8252 26.0526 96.257 26.4528 96.6074L49.2055 116.516ZM83.6644 116.777C84.2893 117.21 85.0313 117.441 85.7912 117.44C86.6959 117.442 87.57 117.113 88.2495 116.516L111.002 96.6074C111.402 96.257 111.723 95.8252 111.943 95.3408C112.163 94.8564 112.276 94.3307 112.276 93.7988C112.276 93.267 112.163 92.7412 111.943 92.2569C111.723 91.7725 111.402 91.3406 111.002 90.9903L88.2495 71.0816C87.5044 70.4297 86.5308 70.1003 85.5429 70.1662C84.555 70.232 83.6338 70.6876 82.9818 71.4327C82.3298 72.1778 82.0005 73.1514 82.0663 74.1393C82.1321 75.1272 82.5877 76.0485 83.3328 76.7005L102.875 93.7988L83.331 110.897C82.759 111.397 82.3531 112.06 82.1678 112.797C81.9825 113.534 82.0265 114.31 82.2939 115.021C82.5613 115.732 83.0395 116.345 83.6644 116.777Z"/>
</mask>
<path fill-rule="evenodd" clip-rule="evenodd" d="M10.7582 8.62465C5.86243 13.0579 3.0494 19.008 2.93791 25.1661L0.415554 164.48C0.304059 170.638 2.90323 176.499 7.64129 180.775C12.3793 185.051 18.8682 187.39 25.6803 187.278L102.736 186.017C109.548 185.906 116.125 183.353 121.021 178.919C125.917 174.486 128.73 168.536 128.841 162.378L131.364 23.0641C131.475 16.906 128.876 11.0445 124.138 6.76895C119.4 2.49338 112.911 0.154034 106.099 0.265529L29.0434 1.52671C22.2313 1.6382 15.6539 4.19141 10.7582 8.62465ZM74.0683 143.462C76.4373 145.599 77.7369 148.53 77.6811 151.609C77.6254 154.688 76.2189 157.663 73.771 159.88C71.3231 162.097 68.0344 163.373 64.6284 163.429C61.2223 163.485 57.9779 162.315 55.6089 160.177C53.2399 158.039 51.9403 155.109 51.996 152.03C52.0518 148.951 53.4583 145.976 55.9061 143.759C58.354 141.542 61.6427 140.266 65.0488 140.21C68.4548 140.154 71.6992 141.324 74.0683 143.462ZM60.1944 125.973C59.613 125.972 59.0398 125.837 58.5203 125.576C58.0007 125.315 57.5493 124.936 57.202 124.47C56.8546 124.004 56.6209 123.463 56.5195 122.891C56.4181 122.318 56.4518 121.73 56.6179 121.173L73.6825 64.2914C73.811 63.8087 74.0351 63.3567 74.3415 62.9622C74.6479 62.5677 75.0304 62.2387 75.4662 61.9947C75.9021 61.7507 76.3825 61.5967 76.879 61.5418C77.3755 61.4868 77.8779 61.5321 78.3566 61.6749C78.8353 61.8176 79.2804 62.055 79.6657 62.373C80.0509 62.6909 80.3685 63.083 80.5994 63.5259C80.8304 63.9688 80.9701 64.4535 81.0104 64.9514C81.0506 65.4493 80.9905 65.9502 80.8336 66.4245L63.769 123.306C63.5395 124.076 63.0676 124.752 62.4236 125.232C61.7796 125.712 60.9978 125.972 60.1944 125.973ZM49.2055 116.516C49.8847 117.113 50.7581 117.441 51.6621 117.44C52.4218 117.441 53.1635 117.209 53.7882 116.777C54.4129 116.344 54.8907 115.732 55.1579 115.02C55.4251 114.309 55.4689 113.533 55.2836 112.797C55.0982 112.06 54.6924 111.397 54.1204 110.897L34.578 93.7988L54.1222 76.7005C54.8673 76.0485 55.3229 75.1272 55.3888 74.1393C55.4546 73.1514 55.1253 72.1778 54.4733 71.4327C53.8213 70.6876 52.9 70.232 51.9121 70.1662C50.9242 70.1003 49.9506 70.4297 49.2055 71.0816L26.4528 90.9903C26.0526 91.3406 25.7319 91.7725 25.5122 92.2569C25.2925 92.7412 25.1789 93.267 25.1789 93.7988C25.1789 94.3307 25.2925 94.8564 25.5122 95.3408C25.7319 95.8252 26.0526 96.257 26.4528 96.6074L49.2055 116.516ZM83.6644 116.777C84.2893 117.21 85.0313 117.441 85.7912 117.44C86.6959 117.442 87.57 117.113 88.2495 116.516L111.002 96.6074C111.402 96.257 111.723 95.8252 111.943 95.3408C112.163 94.8564 112.276 94.3307 112.276 93.7988C112.276 93.267 112.163 92.7412 111.943 92.2569C111.723 91.7725 111.402 91.3406 111.002 90.9903L88.2495 71.0816C87.5044 70.4297 86.5308 70.1003 85.5429 70.1662C84.555 70.232 83.6338 70.6876 82.9818 71.4327C82.3298 72.1778 82.0005 73.1514 82.0663 74.1393C82.1321 75.1272 82.5877 76.0485 83.3328 76.7005L102.875 93.7988L83.331 110.897C82.759 111.397 82.3531 112.06 82.1678 112.797C81.9825 113.534 82.0265 114.31 82.2939 115.021C82.5613 115.732 83.0395 116.345 83.6644 116.777Z" fill="#30FF91" fill-opacity="0.1"/>
<path d="M2.93791 25.1661L1.93807 25.148L2.93791 25.1661ZM10.7582 8.62465L10.0869 7.88339L10.7582 8.62465ZM0.415554 164.48L1.41539 164.498L0.415554 164.48ZM7.64129 180.775L6.97135 181.517H6.97135L7.64129 180.775ZM25.6803 187.278L25.6639 186.279L25.6803 187.278ZM102.736 186.017L102.752 187.017L102.736 186.017ZM128.841 162.378L129.841 162.396L128.841 162.378ZM131.364 23.0641L130.364 23.046L131.364 23.0641ZM124.138 6.76895L123.468 7.51136V7.51136L124.138 6.76895ZM106.099 0.265529L106.115 1.2654L106.099 0.265529ZM29.0434 1.52671L29.0271 0.52684L29.0434 1.52671ZM74.0683 143.462L74.7382 142.719L74.0683 143.462ZM73.771 159.88L74.4422 160.621L73.771 159.88ZM64.6284 163.429L64.612 162.429L64.6284 163.429ZM55.6089 160.177L54.9389 160.92L55.6089 160.177ZM51.996 152.03L50.9962 152.011L51.996 152.03ZM55.9061 143.759L55.2349 143.018L55.9061 143.759ZM65.0488 140.21L65.0651 141.21L65.0488 140.21ZM58.5203 125.576L58.969 124.682L58.9689 124.682L58.5203 125.576ZM60.1944 125.973L60.1941 126.973H60.195L60.1944 125.973ZM57.202 124.47L58.0038 123.873L57.202 124.47ZM56.5195 122.891L55.5349 123.065V123.065L56.5195 122.891ZM56.6179 121.173L55.6601 120.886L55.6596 120.887L56.6179 121.173ZM73.6825 64.2914L74.6403 64.5787L74.6448 64.5638L74.6488 64.5487L73.6825 64.2914ZM74.3415 62.9622L73.5517 62.3488L73.5517 62.3488L74.3415 62.9622ZM79.6657 62.373L80.3022 61.6017L80.3022 61.6017L79.6657 62.373ZM80.5994 63.5259L79.7128 63.9883L79.7128 63.9883L80.5994 63.5259ZM81.0104 64.9514L82.0071 64.8709L82.0071 64.8709L81.0104 64.9514ZM80.8336 66.4245L79.8842 66.1104L79.8798 66.1237L79.8757 66.1371L80.8336 66.4245ZM63.769 123.306L62.8112 123.019L62.8107 123.021L63.769 123.306ZM51.6621 117.44L51.6625 116.44H51.6611L51.6621 117.44ZM49.2055 116.516L49.8655 115.765L49.864 115.763L49.2055 116.516ZM55.1579 115.02L56.094 115.372H56.094L55.1579 115.02ZM55.2836 112.797L56.2533 112.553V112.553L55.2836 112.797ZM54.1204 110.897L53.462 111.65L53.4623 111.65L54.1204 110.897ZM34.578 93.7988L33.9195 93.0462L33.0593 93.7988L33.9195 94.5514L34.578 93.7988ZM54.1222 76.7005L54.7807 77.4531L54.7807 77.4531L54.1222 76.7005ZM55.3888 74.1393L54.391 74.0728L55.3888 74.1393ZM54.4733 71.4327L53.7207 72.0912H53.7207L54.4733 71.4327ZM51.9121 70.1662L51.8456 71.164L51.9121 70.1662ZM49.2055 71.0816L49.864 71.8342L49.864 71.8342L49.2055 71.0816ZM26.4528 90.9903L25.7943 90.2377L25.794 90.2379L26.4528 90.9903ZM26.4528 96.6074L25.794 97.3597L25.7943 97.3599L26.4528 96.6074ZM85.7912 117.44L85.793 116.44H85.7903L85.7912 117.44ZM83.6644 116.777L83.0955 117.6L83.6644 116.777ZM88.2495 116.516L87.591 115.763L87.5893 115.765L88.2495 116.516ZM111.002 96.6074L111.661 97.3599L111.661 97.3597L111.002 96.6074ZM111.943 95.3408L112.854 95.7539L112.854 95.7539L111.943 95.3408ZM111.943 92.2569L112.854 91.8438L112.854 91.8438L111.943 92.2569ZM111.002 90.9903L111.661 90.2379L111.661 90.2377L111.002 90.9903ZM88.2495 71.0816L87.591 71.8342L87.591 71.8342L88.2495 71.0816ZM85.5429 70.1662L85.6094 71.164H85.6094L85.5429 70.1662ZM82.9818 71.4327L83.7343 72.0912L83.7343 72.0912L82.9818 71.4327ZM82.0663 74.1393L81.0685 74.2058V74.2058L82.0663 74.1393ZM83.3328 76.7005L82.6743 77.4531L82.6743 77.4531L83.3328 76.7005ZM102.875 93.7988L103.534 94.5515L104.394 93.7989L103.534 93.0462L102.875 93.7988ZM83.331 110.897L83.9892 111.65L83.9895 111.65L83.331 110.897ZM82.1678 112.797L83.1376 113.041L82.1678 112.797ZM3.93774 25.1842C4.04385 19.3238 6.72179 13.6288 11.4294 9.3659L10.0869 7.88339C5.00308 12.487 2.05495 18.6923 1.93807 25.148L3.93774 25.1842ZM1.41539 164.498L3.93774 25.1842L1.93807 25.148L-0.584282 164.462L1.41539 164.498ZM8.31124 180.033C3.7791 175.943 1.30935 170.355 1.41539 164.498L-0.584282 164.462C-0.701228 170.921 2.02736 177.056 6.97135 181.517L8.31124 180.033ZM25.6639 186.279C19.0862 186.386 12.8479 184.126 8.31123 180.033L6.97135 181.517C11.9108 185.975 18.6502 188.394 25.6967 188.278L25.6639 186.279ZM102.719 185.017L25.6639 186.279L25.6967 188.278L102.752 187.017L102.719 185.017ZM120.35 178.178C115.64 182.443 109.297 184.91 102.719 185.017L102.752 187.017C109.798 186.902 116.611 184.262 121.692 179.661L120.35 178.178ZM127.841 162.36C127.735 168.22 125.057 173.915 120.35 178.178L121.692 179.661C126.776 175.057 129.724 168.852 129.841 162.396L127.841 162.36ZM130.364 23.046L127.841 162.36L129.841 162.396L132.363 23.0822L130.364 23.046ZM123.468 7.51136C128 11.6011 130.47 17.189 130.364 23.046L132.363 23.0822C132.48 16.6231 129.752 10.4879 124.808 6.02653L123.468 7.51136ZM106.115 1.2654C112.693 1.15774 118.931 3.41754 123.468 7.51136L124.808 6.02653C119.868 1.56923 113.129 -0.849668 106.082 -0.734337L106.115 1.2654ZM29.0598 2.52657L106.115 1.2654L106.082 -0.734337L29.0271 0.52684L29.0598 2.52657ZM11.4294 9.3659C16.1393 5.10094 22.4817 2.63424 29.0598 2.52657L29.0271 0.52684C21.9809 0.642165 15.1685 3.28187 10.0869 7.88339L11.4294 9.3659ZM78.681 151.627C78.7422 148.247 77.3132 145.043 74.7382 142.719L73.3983 144.204C75.5614 146.156 76.7316 148.813 76.6813 151.591L78.681 151.627ZM74.4422 160.621C77.0782 158.234 78.6198 155.004 78.681 151.627L76.6813 151.591C76.631 154.372 75.3595 157.092 73.0998 159.139L74.4422 160.621ZM64.6447 164.429C68.2849 164.369 71.8085 163.006 74.4422 160.621L73.0998 159.139C70.8378 161.187 67.784 162.377 64.612 162.429L64.6447 164.429ZM54.9389 160.92C57.5094 163.239 61.0043 164.488 64.6447 164.429L64.612 162.429C61.4403 162.481 58.4465 161.391 56.2788 159.435L54.9389 160.92ZM50.9962 152.011C50.935 155.392 52.364 158.596 54.9389 160.92L56.2788 159.435C54.1157 157.483 52.9456 154.826 52.9958 152.048L50.9962 152.011ZM55.2349 143.018C52.5989 145.405 51.0573 148.635 50.9962 152.011L52.9958 152.048C53.0462 149.266 54.3176 146.546 56.5774 144.5L55.2349 143.018ZM65.0324 139.21C61.3923 139.27 57.8686 140.633 55.2349 143.018L56.5774 144.5C58.8394 142.452 61.8931 141.262 65.0651 141.21L65.0324 139.21ZM74.7382 142.719C72.1678 140.4 68.6728 139.15 65.0324 139.21L65.0651 141.21C68.2368 141.158 71.2307 142.248 73.3983 144.204L74.7382 142.719ZM58.0716 126.469C58.7303 126.8 59.4571 126.972 60.1941 126.973L60.1946 124.973C59.769 124.973 59.3493 124.873 58.969 124.682L58.0716 126.469ZM56.4001 125.068C56.8405 125.659 57.4129 126.139 58.0716 126.469L58.9689 124.682C58.5886 124.491 58.2581 124.214 58.0038 123.873L56.4001 125.068ZM55.5349 123.065C55.6634 123.791 55.9597 124.477 56.4001 125.068L58.0038 123.873C57.7495 123.531 57.5784 123.136 57.5042 122.716L55.5349 123.065ZM55.6596 120.887C55.449 121.594 55.4063 122.34 55.5349 123.065L57.5042 122.716C57.43 122.297 57.4546 121.867 57.5762 121.459L55.6596 120.887ZM72.7246 64.004L55.6601 120.886L57.5757 121.461L74.6403 64.5787L72.7246 64.004ZM73.5517 62.3488C73.1632 62.849 72.8791 63.4221 72.7161 64.034L74.6488 64.5487C74.7429 64.1953 74.907 63.8644 75.1313 63.5756L73.5517 62.3488ZM74.9778 61.1221C74.4252 61.4315 73.9402 61.8486 73.5517 62.3488L75.1313 63.5756C75.3556 63.2868 75.6356 63.0459 75.9547 62.8673L74.9778 61.1221ZM76.769 60.5478C76.1395 60.6175 75.5304 60.8128 74.9778 61.1221L75.9547 62.8673C76.2738 62.6887 76.6255 62.5759 76.989 62.5357L76.769 60.5478ZM78.6425 60.7166C78.0356 60.5356 77.3985 60.4782 76.769 60.5478L76.989 62.5357C77.3525 62.4955 77.7203 62.5286 78.0708 62.6331L78.6425 60.7166ZM80.3022 61.6017C79.8137 61.1986 79.2494 60.8976 78.6425 60.7166L78.0708 62.6331C78.4212 62.7377 78.7471 62.9115 79.0292 63.1442L80.3022 61.6017ZM81.4861 63.0635C81.1932 62.5019 80.7907 62.0049 80.3022 61.6017L79.0292 63.1442C79.3112 63.377 79.5437 63.664 79.7128 63.9883L81.4861 63.0635ZM82.0071 64.8709C81.9561 64.2396 81.779 63.625 81.4861 63.0635L79.7128 63.9883C79.8819 64.3125 79.9842 64.6674 80.0136 65.032L82.0071 64.8709ZM81.783 66.7385C81.9819 66.1373 82.0581 65.5022 82.0071 64.8709L80.0136 65.0319C80.043 65.3964 79.999 65.7632 79.8842 66.1104L81.783 66.7385ZM64.7268 123.594L81.7914 66.7118L79.8757 66.1371L62.8112 123.019L64.7268 123.594ZM63.0215 126.034C63.838 125.424 64.4363 124.568 64.7273 123.592L62.8107 123.021C62.6426 123.584 62.2972 124.079 61.8257 124.43L63.0215 126.034ZM60.195 126.973C61.2137 126.972 62.205 126.643 63.0215 126.034L61.8257 124.43C61.3542 124.782 60.7819 124.972 60.1937 124.973L60.195 126.973ZM51.6611 116.44C51.0003 116.441 50.3619 116.201 49.8654 115.765L48.5456 117.267C49.4075 118.024 50.5158 118.441 51.6631 118.44L51.6611 116.44ZM53.219 115.954C52.7617 116.271 52.2187 116.441 51.6625 116.44L51.6617 118.44C52.625 118.441 53.5654 118.147 54.3574 117.599L53.219 115.954ZM54.2218 114.669C54.0262 115.189 53.6763 115.638 53.219 115.954L54.3574 117.599C55.1494 117.051 55.7552 116.274 56.094 115.372L54.2218 114.669ZM54.3138 113.041C54.4495 113.58 54.4174 114.148 54.2218 114.669L56.094 115.372C56.4328 114.47 56.4884 113.487 56.2533 112.553L54.3138 113.041ZM53.4623 111.65C53.881 112.016 54.1781 112.501 54.3138 113.041L56.2533 112.553C56.0183 111.618 55.5038 110.778 54.7786 110.144L53.4623 111.65ZM33.9195 94.5514L53.462 111.65L54.7789 110.145L35.2365 93.0462L33.9195 94.5514ZM53.4638 75.9479L33.9195 93.0462L35.2364 94.5515L54.7807 77.4531L53.4638 75.9479ZM54.391 74.0728C54.3428 74.7961 54.0092 75.4706 53.4637 75.9479L54.7807 77.4531C55.7254 76.6264 56.3031 75.4584 56.3865 74.2058L54.391 74.0728ZM53.7207 72.0912C54.1981 72.6368 54.4392 73.3496 54.391 74.0728L56.3865 74.2058C56.47 72.9533 56.0525 71.7189 55.2259 70.7742L53.7207 72.0912ZM51.8456 71.164C52.5689 71.2122 53.2434 71.5457 53.7207 72.0912L55.2259 70.7742C54.3992 69.8295 53.2311 69.2519 51.9786 69.1684L51.8456 71.164ZM49.864 71.8342C50.4095 71.3569 51.1223 71.1158 51.8456 71.164L51.9786 69.1684C50.7261 69.0849 49.4917 69.5024 48.547 70.3291L49.864 71.8342ZM27.1113 91.7429L49.864 71.8342L48.547 70.3291L25.7943 90.2377L27.1113 91.7429ZM26.4229 92.6699C26.5838 92.3153 26.8185 91.9992 27.1115 91.7427L25.794 90.2379C25.2867 90.6821 24.8801 91.2296 24.6015 91.8438L26.4229 92.6699ZM26.1789 93.7988C26.1789 93.4094 26.2621 93.0246 26.4229 92.6699L24.6015 91.8438C24.323 92.4579 24.1789 93.1245 24.1789 93.7988H26.1789ZM26.4229 94.9277C26.2621 94.5731 26.1789 94.1882 26.1789 93.7988H24.1789C24.1789 94.4732 24.323 95.1398 24.6015 95.7539L26.4229 94.9277ZM27.1115 95.855C26.8185 95.5985 26.5838 95.2823 26.4229 94.9277L24.6015 95.7539C24.8801 96.368 25.2867 96.9155 25.794 97.3597L27.1115 95.855ZM49.864 115.763L27.1113 95.8548L25.7943 97.3599L48.547 117.269L49.864 115.763ZM85.7903 116.44C85.234 116.441 84.6908 116.272 84.2333 115.955L83.0955 117.6C83.8878 118.148 84.8286 118.441 85.7921 118.44L85.7903 116.44ZM87.5893 115.765C87.0928 116.201 86.4541 116.442 85.793 116.44L85.7894 118.44C86.9377 118.442 88.0473 118.025 88.9098 117.267L87.5893 115.765ZM110.344 95.8548L87.591 115.763L88.9081 117.269L111.661 97.3599L110.344 95.8548ZM111.032 94.9277C110.871 95.2823 110.637 95.5985 110.344 95.855L111.661 97.3597C112.168 96.9155 112.575 96.368 112.854 95.7539L111.032 94.9277ZM111.276 93.7988C111.276 94.1882 111.193 94.5731 111.032 94.9277L112.854 95.7539C113.132 95.1398 113.276 94.4732 113.276 93.7988H111.276ZM111.032 92.6699C111.193 93.0246 111.276 93.4094 111.276 93.7988H113.276C113.276 93.1245 113.132 92.4579 112.854 91.8438L111.032 92.6699ZM110.344 91.7427C110.637 91.9992 110.871 92.3153 111.032 92.6699L112.854 91.8438C112.575 91.2296 112.168 90.6821 111.661 90.2379L110.344 91.7427ZM87.591 71.8342L110.344 91.7429L111.661 90.2377L88.9081 70.3291L87.591 71.8342ZM85.6094 71.164C86.3327 71.1158 87.0455 71.3569 87.591 71.8342L88.9081 70.3291C87.9634 69.5024 86.729 69.0849 85.4764 69.1684L85.6094 71.164ZM83.7343 72.0912C84.2117 71.5457 84.8862 71.2122 85.6094 71.164L85.4764 69.1684C84.2239 69.2519 83.0558 69.8295 82.2292 70.7742L83.7343 72.0912ZM83.0641 74.0728C83.0159 73.3496 83.257 72.6368 83.7343 72.0912L82.2292 70.7742C81.4025 71.7189 80.985 72.9533 81.0685 74.2058L83.0641 74.0728ZM83.9913 75.9479C83.4458 75.4706 83.1123 74.7961 83.0641 74.0728L81.0685 74.2058C81.152 75.4584 81.7296 76.6264 82.6743 77.4531L83.9913 75.9479ZM103.534 93.0462L83.9913 75.9479L82.6743 77.4531L102.217 94.5514L103.534 93.0462ZM83.9895 111.65L103.534 94.5515L102.217 93.0462L82.6726 110.145L83.9895 111.65ZM83.1376 113.041C83.2733 112.501 83.5704 112.016 83.9892 111.65L82.6729 110.144C81.9475 110.778 81.433 111.619 81.198 112.553L83.1376 113.041ZM83.2299 114.669C83.0341 114.149 83.0019 113.58 83.1376 113.041L81.198 112.553C80.963 113.488 81.0188 114.471 81.3579 115.373L83.2299 114.669ZM84.2333 115.955C83.7758 115.639 83.4257 115.19 83.2299 114.669L81.3579 115.373C81.6969 116.275 82.3031 117.052 83.0955 117.6L84.2333 115.955Z" fill="white" fill-opacity="0.04" mask="url(#path-1-inside-1_17_215)"/>
</svg>
