<svg width="156" height="157" viewBox="0 0 156 157" fill="none" xmlns="http://www.w3.org/2000/svg">
<mask id="path-1-inside-1_17_227" fill="white">
<path fill-rule="evenodd" clip-rule="evenodd" d="M77.7606 156.056C120.707 156.056 155.521 121.242 155.521 78.2961C155.521 35.3505 120.707 0.536133 77.7606 0.536133C34.8146 0.536133 0 35.3505 0 78.2961C0 121.242 34.8146 156.056 77.7606 156.056ZM127.429 82.0545C130.762 80.13 130.762 75.3187 127.429 73.3942L57.5343 33.041C54.201 31.1165 50.0343 33.5221 50.0343 37.3711L50.0343 118.078C50.0343 121.927 54.201 124.332 57.5343 122.408L127.429 82.0545Z"/>
</mask>
<path fill-rule="evenodd" clip-rule="evenodd" d="M77.7606 156.056C120.707 156.056 155.521 121.242 155.521 78.2961C155.521 35.3505 120.707 0.536133 77.7606 0.536133C34.8146 0.536133 0 35.3505 0 78.2961C0 121.242 34.8146 156.056 77.7606 156.056ZM127.429 82.0545C130.762 80.13 130.762 75.3187 127.429 73.3942L57.5343 33.041C54.201 31.1165 50.0343 33.5221 50.0343 37.3711L50.0343 118.078C50.0343 121.927 54.201 124.332 57.5343 122.408L127.429 82.0545Z" fill="#3075FF" fill-opacity="0.1"/>
<path d="M127.429 73.3942L127.929 72.5282L127.429 73.3942ZM127.429 82.0545L126.929 81.1884H126.929L127.429 82.0545ZM57.5343 33.041L58.0343 32.175L57.5343 33.041ZM50.0343 37.3711H51.0343H50.0343ZM50.0343 118.078H49.0343H50.0343ZM57.5343 122.408L57.0343 121.542H57.0343L57.5343 122.408ZM154.521 78.2961C154.521 120.69 120.154 155.056 77.7606 155.056V157.056C121.259 157.056 156.521 121.794 156.521 78.2961H154.521ZM77.7606 1.53613C120.154 1.53613 154.521 35.9028 154.521 78.2961H156.521C156.521 34.7982 121.259 -0.463867 77.7606 -0.463867V1.53613ZM1 78.2961C1 35.9028 35.3669 1.53613 77.7606 1.53613V-0.463867C34.2623 -0.463867 -1 34.7982 -1 78.2961H1ZM77.7606 155.056C35.3669 155.056 1 120.69 1 78.2961H-1C-1 121.794 34.2623 157.056 77.7606 157.056V155.056ZM126.929 74.2602C129.595 75.7998 129.595 79.6489 126.929 81.1884L127.929 82.9205C131.929 80.6111 131.929 74.8376 127.929 72.5282L126.929 74.2602ZM57.0343 33.907L126.929 74.2602L127.929 72.5282L58.0343 32.175L57.0343 33.907ZM51.0343 37.3711C51.0343 34.2919 54.3676 32.3674 57.0343 33.907L58.0343 32.175C54.0343 29.8656 49.0343 32.7523 49.0343 37.3711H51.0343ZM51.0343 118.078L51.0343 37.3711H49.0343L49.0343 118.078H51.0343ZM57.0343 121.542C54.3676 123.081 51.0343 121.157 51.0343 118.078H49.0343C49.0343 122.696 54.0343 125.583 58.0343 123.274L57.0343 121.542ZM126.929 81.1884L57.0343 121.542L58.0343 123.274L127.929 82.9205L126.929 81.1884Z" fill="white" fill-opacity="0.04" mask="url(#path-1-inside-1_17_227)"/>
</svg>
