<svg width="220" height="220" viewBox="0 0 220 220" fill="none" xmlns="http://www.w3.org/2000/svg">
<path d="M101.31 132.359H70.2305C68.3913 132.359 66.9019 133.848 66.9019 135.687V183.942C66.9019 185.781 68.3913 187.271 70.2305 187.271H101.31C103.149 187.271 104.636 185.781 104.636 183.942V135.685C104.636 133.846 103.147 132.359 101.31 132.359Z" fill="#30FF91" fill-opacity="0.1"/>
<path d="M70.2305 132.859H101.31C102.871 132.859 104.136 134.122 104.136 135.685V183.942C104.136 185.506 102.872 186.771 101.31 186.771H70.2305C68.6674 186.771 67.4019 185.505 67.4019 183.942V135.687C67.4019 134.124 68.6674 132.859 70.2305 132.859Z" stroke="white" stroke-opacity="0.04"/>
<path d="M149.769 32.7317H118.69C116.851 32.7317 115.361 34.2211 115.361 36.0603V183.94C115.361 185.779 116.851 187.268 118.69 187.268H149.769C151.609 187.268 153.098 185.779 153.098 183.94V36.0603C153.098 34.2211 151.609 32.7317 149.769 32.7317Z" fill="#30FF91" fill-opacity="0.1"/>
<path d="M118.69 33.2317H149.769C151.332 33.2317 152.598 34.4972 152.598 36.0603V183.94C152.598 185.503 151.332 186.768 149.769 186.768H118.69C117.127 186.768 115.861 185.503 115.861 183.94V36.0603C115.861 34.4972 117.127 33.2317 118.69 33.2317Z" stroke="white" stroke-opacity="0.04"/>
<path d="M198.477 77.6577H167.398C165.559 77.6577 164.069 79.1471 164.069 80.9863V183.94C164.069 185.779 165.559 187.268 167.398 187.268H198.475C200.314 187.268 201.804 185.779 201.804 183.94V80.9863C201.804 79.1493 200.314 77.6577 198.477 77.6577Z" fill="#30FF91" fill-opacity="0.1"/>
<path d="M167.398 78.1577H198.477C200.038 78.1577 201.304 79.425 201.304 80.9863V183.94C201.304 185.503 200.038 186.768 198.475 186.768H167.398C165.835 186.768 164.569 185.503 164.569 183.94V80.9863C164.569 79.4233 165.835 78.1577 167.398 78.1577Z" stroke="white" stroke-opacity="0.04"/>
<path d="M52.6019 77.6577H21.5224C19.6832 77.6577 18.1938 79.1471 18.1938 80.9863V183.94C18.1938 185.779 19.6832 187.268 21.5224 187.268H52.6019C54.4411 187.268 55.9305 185.779 55.9305 183.94V80.9863C55.9305 79.1493 54.4411 77.6577 52.6019 77.6577Z" fill="#30FF91" fill-opacity="0.1"/>
<path d="M21.5224 78.1577H52.6019C54.1647 78.1577 55.4305 79.4252 55.4305 80.9863V183.94C55.4305 185.503 54.1649 186.768 52.6019 186.768H21.5224C19.9594 186.768 18.6938 185.503 18.6938 183.94V80.9863C18.6938 79.4233 19.9594 78.1577 21.5224 78.1577Z" stroke="white" stroke-opacity="0.04"/>
</svg>
