<svg width="60" height="60" viewBox="0 0 60 60" fill="none" xmlns="http://www.w3.org/2000/svg">
<path d="M41.6176 17.9656C41.3455 17.825 41.0806 17.6708 40.8239 17.5037C40.0775 17.0102 39.3931 16.4288 38.7856 15.7719C37.2655 14.0326 36.6977 12.2681 36.4886 11.0327H36.497C36.3223 10.0072 36.3946 9.34375 36.4055 9.34375H29.4818V36.1163C29.4818 36.4757 29.4818 36.831 29.4667 37.1821C29.4667 37.2257 29.4625 37.266 29.46 37.3131C29.46 37.3324 29.46 37.3525 29.4558 37.3727V37.3878C29.3828 38.3484 29.0749 39.2764 28.5591 40.09C28.0433 40.9037 27.3355 41.5781 26.4978 42.054C25.6249 42.5506 24.6375 42.8112 23.6331 42.8098C20.4073 42.8098 17.7929 40.1795 17.7929 36.9309C17.7929 33.6824 20.4073 31.052 23.6331 31.052C24.2438 31.0515 24.8507 31.1476 25.4312 31.3367L25.4396 24.2871C23.6771 24.0594 21.8865 24.1995 20.1809 24.6985C18.4752 25.1975 16.8914 26.0445 15.5295 27.1862C14.3361 28.2231 13.3329 29.4603 12.5648 30.8421C12.2726 31.346 11.1699 33.3708 11.0363 36.6572C10.9523 38.5224 11.5125 40.4549 11.7796 41.2536V41.2704C11.9476 41.7407 12.5984 43.3457 13.6592 44.6987C14.5145 45.784 15.525 46.7373 16.6582 47.5281V47.5113L16.675 47.5281C20.0269 49.8057 23.7432 49.6563 23.7432 49.6563C24.3865 49.6302 26.5415 49.6563 28.9888 48.4964C31.7032 47.2106 33.2485 45.2949 33.2485 45.2949C34.2357 44.1503 35.0207 42.8458 35.5698 41.4375C36.1964 39.7906 36.4055 37.8153 36.4055 37.0258V22.8224C36.4895 22.8728 37.6081 23.6127 37.6081 23.6127C37.6081 23.6127 39.2198 24.6457 41.7343 25.3184C43.5383 25.7971 45.9688 25.8979 45.9688 25.8979V19.0246C45.1172 19.117 43.3879 18.8483 41.6176 17.9656Z" fill="white"/>
</svg>
