<svg width="60" height="60" viewBox="0 0 60 60" fill="none" xmlns="http://www.w3.org/2000/svg">
<path d="M44.7581 14.2513C42.8296 12.2616 40.533 10.6843 38.0021 9.61103C35.4713 8.53781 32.7568 7.99021 30.0168 8.00013C18.5357 8.00013 9.17878 17.5623 9.16826 29.3013C9.16826 33.0611 10.1305 36.7188 11.9472 39.9572L9 51.0001L20.0526 48.0385C23.1103 49.7395 26.5358 50.631 30.0168 50.6319H30.0273C41.5112 50.6319 50.8654 41.0698 50.8759 29.3201C50.8785 26.5198 50.3391 23.7467 49.2887 21.1605C48.2382 18.5743 46.7002 16.2261 44.7581 14.2513ZM30.0168 47.0253C26.9119 47.0264 23.864 46.1723 21.1937 44.5528L20.5627 44.1658L14.0058 45.9234L15.7567 39.3848L15.3466 38.7102C13.6109 35.8892 12.6929 32.6231 12.6991 29.2905C12.6991 19.5456 20.4733 11.596 30.0273 11.596C32.3034 11.5918 34.5578 12.0482 36.6606 12.9389C38.7633 13.8296 40.6727 15.137 42.2788 16.7856C43.8905 18.4278 45.1682 20.3799 46.0382 22.5294C46.9082 24.6789 47.3533 26.9831 47.3477 29.3093C47.3372 39.0891 39.563 47.0253 30.0168 47.0253ZM39.5209 33.7652C39.003 33.4991 36.4449 32.2118 35.9638 32.0291C35.4853 31.8544 35.1356 31.763 34.7939 32.2951C34.4442 32.8246 33.4451 34.0313 33.1454 34.3779C32.8457 34.7354 32.5355 34.7757 32.0149 34.5123C31.497 34.2436 29.817 33.6846 27.8294 31.8651C26.2783 30.4542 25.2398 28.7073 24.9296 28.1779C24.6299 27.6458 24.9006 27.3609 25.1609 27.0948C25.3897 26.8583 25.6789 26.4713 25.9391 26.1649C26.202 25.8586 26.2888 25.6328 26.4597 25.2781C26.6306 24.9179 26.5491 24.6116 26.4203 24.3455C26.2888 24.0794 25.2503 21.4538 24.8113 20.3949C24.3906 19.3494 23.9621 19.4946 23.6413 19.4811C23.3416 19.4623 22.9919 19.4623 22.6423 19.4623C22.3782 19.469 22.1184 19.5315 21.879 19.6457C21.6397 19.7599 21.4261 19.9235 21.2515 20.1261C20.773 20.6583 19.4348 21.9456 19.4348 24.5713C19.4348 27.1969 21.3014 29.7205 21.5644 30.0779C21.822 30.4354 25.2293 35.8077 30.4585 38.1189C31.6942 38.6699 32.6669 38.9951 33.4267 39.2423C34.6756 39.6508 35.8034 39.589 36.7026 39.4573C37.7016 39.3014 39.7812 38.1673 40.2203 36.923C40.6514 35.676 40.6514 34.6118 40.52 34.3887C40.3912 34.1629 40.0415 34.0313 39.5209 33.7652Z" fill="white"/>
</svg>
