<svg width="94" height="94" viewBox="0 0 94 94" fill="none" xmlns="http://www.w3.org/2000/svg">
<g filter="url(#filter0_d_15_107)">
<path d="M47.0146 17.4546C34.6777 17.4546 31.0696 17.4673 30.3683 17.5255C27.8365 17.736 26.2611 18.1346 24.5448 18.9891C23.2221 19.646 22.179 20.4073 21.1495 21.4746C19.2745 23.421 18.1382 25.8155 17.7268 28.6619C17.5269 30.0437 17.4687 30.3255 17.4569 37.3837C17.4523 39.7364 17.4569 42.8328 17.4569 46.986C17.4569 59.3132 17.4705 62.9178 17.5296 63.6178C17.7341 66.0814 18.1205 67.6314 18.9386 69.3269C20.5022 72.5723 23.4885 75.0087 27.0066 75.9178C28.2247 76.2314 29.5701 76.4041 31.2973 76.486C32.0291 76.5178 39.488 76.5405 46.9514 76.5405C54.4148 76.5405 61.8782 76.5314 62.5919 76.495C64.5918 76.401 65.7531 76.245 67.0372 75.9132C70.578 74.9996 73.5097 72.5996 75.1051 69.3087C75.9074 67.6541 76.3142 66.045 76.4982 63.71C76.5382 63.201 76.5551 55.0841 76.5551 46.9782C76.5551 38.871 76.5369 30.7691 76.4969 30.26C76.3105 27.8873 75.9037 26.2919 75.0756 24.6055C74.396 23.225 73.6415 22.1941 72.5461 21.14C70.5911 19.2728 68.2003 18.1364 65.3513 17.7255C63.9709 17.526 63.6959 17.4669 56.6325 17.4546H47.0146Z" fill="url(#paint0_radial_15_107)"/>
</g>
<path d="M47.0146 17.4546C34.6777 17.4546 31.0696 17.4673 30.3683 17.5255C27.8365 17.736 26.2611 18.1346 24.5448 18.9891C23.2221 19.646 22.179 20.4073 21.1495 21.4746C19.2745 23.421 18.1382 25.8155 17.7268 28.6619C17.5269 30.0437 17.4687 30.3255 17.4569 37.3837C17.4523 39.7364 17.4569 42.8328 17.4569 46.986C17.4569 59.3132 17.4705 62.9178 17.5296 63.6178C17.7341 66.0814 18.1205 67.6314 18.9386 69.3269C20.5022 72.5723 23.4885 75.0087 27.0066 75.9178C28.2247 76.2314 29.5701 76.4041 31.2973 76.486C32.0291 76.5178 39.488 76.5405 46.9514 76.5405C54.4148 76.5405 61.8782 76.5314 62.5919 76.495C64.5918 76.401 65.7531 76.245 67.0372 75.9132C70.578 74.9996 73.5097 72.5996 75.1051 69.3087C75.9074 67.6541 76.3142 66.045 76.4982 63.71C76.5382 63.201 76.5551 55.0841 76.5551 46.9782C76.5551 38.871 76.5369 30.7691 76.4969 30.26C76.3105 27.8873 75.9037 26.2919 75.0756 24.6055C74.396 23.225 73.6415 22.1941 72.5461 21.14C70.5911 19.2728 68.2003 18.1364 65.3513 17.7255C63.9709 17.526 63.6959 17.4669 56.6325 17.4546H47.0146Z" fill="url(#paint1_radial_15_107)"/>
<path d="M47.001 25.1818C41.0757 25.1818 40.3321 25.2077 38.0049 25.3136C35.6822 25.4199 34.0968 25.7877 32.7096 26.3272C31.2746 26.8845 30.0574 27.6299 28.8447 28.8431C27.6311 30.0559 26.8857 31.2731 26.3266 32.7077C25.7857 34.0954 25.4175 35.6813 25.313 38.0031C25.2089 40.3304 25.1816 41.0745 25.1816 46.9999C25.1816 52.9254 25.208 53.6668 25.3135 55.994C25.4203 58.3168 25.788 59.9022 26.3271 61.2895C26.8848 62.7245 27.6302 63.9418 28.8433 65.1545C30.0556 66.3681 31.2728 67.1154 32.7069 67.6727C34.095 68.2122 35.6809 68.5799 38.0031 68.6863C40.3303 68.7922 41.0734 68.8181 46.9983 68.8181C52.924 68.8181 53.6653 68.7922 55.9925 68.6863C58.3152 68.5799 59.9024 68.2122 61.2905 67.6727C62.725 67.1154 63.9405 66.3681 65.1527 65.1545C66.3663 63.9418 67.1117 62.7245 67.6708 61.2899C68.2072 59.9022 68.5753 58.3163 68.6844 55.9945C68.789 53.6672 68.8162 52.9254 68.8162 46.9999C68.8162 41.0745 68.789 40.3309 68.6844 38.0036C68.5753 35.6809 68.2072 34.0954 67.6708 32.7081C67.1117 31.2731 66.3663 30.0559 65.1527 28.8431C63.9391 27.6295 62.7255 26.884 61.2892 26.3272C59.8983 25.7877 58.312 25.4199 55.9893 25.3136C53.6621 25.2077 52.9213 25.1818 46.9942 25.1818H47.001ZM45.0438 29.1136C45.6247 29.1127 46.2728 29.1136 47.001 29.1136C52.8263 29.1136 53.5167 29.1345 55.8171 29.239C57.9443 29.3363 59.0988 29.6918 59.8679 29.9904C60.886 30.3859 61.6119 30.8586 62.3751 31.6222C63.1387 32.3859 63.6114 33.1131 64.0077 34.1313C64.3064 34.8995 64.6623 36.054 64.7591 38.1813C64.8636 40.4813 64.8863 41.1722 64.8863 46.9949C64.8863 52.8177 64.8636 53.5086 64.7591 55.8086C64.6618 57.9359 64.3064 59.0904 64.0077 59.8586C63.6123 60.8768 63.1387 61.6018 62.3751 62.3649C61.6114 63.1286 60.8865 63.6013 59.8679 63.9968C59.0997 64.2968 57.9443 64.6513 55.8171 64.7486C53.5171 64.8531 52.8263 64.8759 47.001 64.8759C41.1752 64.8759 40.4848 64.8531 38.1849 64.7486C36.0577 64.6504 34.9032 64.2949 34.1336 63.9963C33.1155 63.6009 32.3882 63.1281 31.6246 62.3645C30.861 61.6009 30.3883 60.8754 29.9919 59.8568C29.6933 59.0886 29.3374 57.934 29.2406 55.8068C29.1361 53.5068 29.1152 52.8159 29.1152 46.9895C29.1152 41.1631 29.1361 40.4759 29.2406 38.1759C29.3379 36.0486 29.6933 34.894 29.9919 34.1249C30.3874 33.1068 30.861 32.3795 31.6246 31.6159C32.3882 30.8522 33.1155 30.3795 34.1336 29.9831C34.9027 29.6831 36.0577 29.3286 38.1849 29.2309C40.1975 29.1399 40.9775 29.1127 45.0438 29.1081V29.1136ZM58.647 32.7363C57.2016 32.7363 56.0289 33.9077 56.0289 35.3536C56.0289 36.799 57.2016 37.9718 58.647 37.9718C60.0924 37.9718 61.2651 36.799 61.2651 35.3536C61.2651 33.9081 60.0924 32.7354 58.647 32.7354V32.7363ZM47.001 35.7954C40.8134 35.7954 35.7968 40.8122 35.7968 46.9999C35.7968 53.1877 40.8134 58.2022 47.001 58.2022C53.1885 58.2022 58.2034 53.1877 58.2034 46.9999C58.2034 40.8122 53.1885 35.7954 47.001 35.7954ZM47.001 39.7272C51.0172 39.7272 54.2735 42.9831 54.2735 46.9999C54.2735 51.0163 51.0172 54.2727 47.001 54.2727C42.9843 54.2727 39.7285 51.0163 39.7285 46.9999C39.7285 42.9831 42.9843 39.7272 47.001 39.7272Z" fill="white"/>
<defs>
<filter id="filter0_d_15_107" x="0.954834" y="0.95459" width="92.1003" height="92.0859" filterUnits="userSpaceOnUse" color-interpolation-filters="sRGB">
<feFlood flood-opacity="0" result="BackgroundImageFix"/>
<feColorMatrix in="SourceAlpha" type="matrix" values="0 0 0 0 0 0 0 0 0 0 0 0 0 0 0 0 0 0 127 0" result="hardAlpha"/>
<feOffset/>
<feGaussianBlur stdDeviation="8.25"/>
<feComposite in2="hardAlpha" operator="out"/>
<feColorMatrix type="matrix" values="0 0 0 0 0.966667 0 0 0 0 0 0 0 0 0 1 0 0 0 0.5 0"/>
<feBlend mode="normal" in2="BackgroundImageFix" result="effect1_dropShadow_15_107"/>
<feBlend mode="normal" in="SourceGraphic" in2="effect1_dropShadow_15_107" result="shape"/>
</filter>
<radialGradient id="paint0_radial_15_107" cx="0" cy="0" r="1" gradientUnits="userSpaceOnUse" gradientTransform="translate(33.1534 81.0914) rotate(-90) scale(58.5585 54.4772)">
<stop stop-color="#FFD015"/>
<stop offset="0.1" stop-color="#FFD119"/>
<stop offset="0.5" stop-color="#FF270C"/>
<stop offset="1" stop-color="#CA13A6"/>
</radialGradient>
<radialGradient id="paint1_radial_15_107" cx="0" cy="0" r="1" gradientUnits="userSpaceOnUse" gradientTransform="translate(7.55523 21.711) rotate(78.678) scale(26.1761 107.923)">
<stop stop-color="#125DCF"/>
<stop offset="0.128" stop-color="#105FD7"/>
<stop offset="1" stop-color="#6600FF" stop-opacity="0"/>
</radialGradient>
</defs>
</svg>
