<svg width="98" height="97" viewBox="0 0 98 97" fill="none" xmlns="http://www.w3.org/2000/svg">
<path fill-rule="evenodd" clip-rule="evenodd" d="M83.1583 61.2764C82.91 61.0285 82.7703 60.6923 82.7703 60.3416V58.472C82.7703 57.2942 84.1966 56.7043 85.0309 57.5372L93.251 65.7432C94.0853 66.576 93.4947 68 92.3147 68H90.4421C90.0905 68 89.7541 67.8607 89.5058 67.6128L83.1583 61.2764ZM3.31081 64.0339C2.57941 64.0339 1.98649 64.6258 1.98649 65.3559V66.678C1.98649 67.4081 2.57941 68 3.31081 68H23.1922C30.4987 67.9911 36.4189 62.0756 36.4189 54.7797V53.4576C36.4189 46.1562 30.4897 40.2373 23.1757 40.2373H17.8784C17.147 40.2373 16.5541 40.8292 16.5541 41.5593V42.8814C16.5541 43.6115 17.147 44.2034 17.8784 44.2034H23.1757C28.2955 44.2034 32.4459 48.3466 32.4459 53.4576V54.7797C32.4459 59.8906 28.2955 64.0339 23.1757 64.0339H3.31081ZM41.0541 58.0847V66.678C41.0541 67.4081 41.647 68 42.3784 68H43.7027C44.4341 68 45.027 67.4081 45.027 66.678V59.4068C45.027 58.6766 45.6199 58.0847 46.3514 58.0847H62.2432C62.9747 58.0847 63.5676 57.4929 63.5676 56.7627V54.1186V49.4915V46.8475C63.5676 46.1173 62.9747 45.5254 62.2432 45.5254H46.3514C45.6199 45.5254 45.027 44.9335 45.027 44.2034V42.2203C45.027 41.4902 45.6199 40.8983 46.3514 40.8983H69.527C70.2587 40.8983 70.8514 40.3064 70.8514 39.5763V37.5932V36.9322V34.2881C70.8514 33.558 71.444 32.9661 72.1757 32.9661H78.1351C78.5007 32.9661 78.7973 32.6702 78.7973 32.3051V30.322C78.7973 29.5919 78.2047 29 77.473 29H70.8514L66.8784 29L13.2432 29C5.92921 29 0 34.919 0 42.2203C0 49.5217 5.9292 55.4407 13.2432 55.4407H18.5405C19.272 55.4407 19.8649 54.8488 19.8649 54.1186V52.7966C19.8649 52.0665 19.272 51.4746 18.5405 51.4746H13.2432C8.12341 51.4746 3.97297 47.3313 3.97297 42.2203C3.97297 37.1094 8.12341 32.9661 13.2432 32.9661L65.5541 32.9661C66.2857 32.9661 66.8784 33.558 66.8784 34.2881V35.6102C66.8784 36.3403 66.2857 36.9322 65.5541 36.9322H42.3784C41.647 36.9322 41.0541 37.5241 41.0541 38.2542V40.8983V45.5254V48.1695C41.0541 48.8997 41.647 49.4915 42.3784 49.4915H58.2703C59.0017 49.4915 59.5946 50.0834 59.5946 50.8136V52.7966C59.5946 53.5268 59.0017 54.1186 58.2703 54.1186H42.3784C41.647 54.1186 41.0541 54.7105 41.0541 55.4407V56.7627V58.0847ZM76.1487 36.9322C75.417 36.9322 74.8243 37.5241 74.8243 38.2542V66.678C74.8243 67.4081 75.417 68 76.1487 68H78.1351C78.5007 68 78.7973 67.7041 78.7973 67.339V56.9231V47.0062V38.2542C78.7973 37.5241 78.2047 36.9322 77.473 36.9322H76.1487ZM85.0746 46.0093C84.2601 46.9034 82.7703 46.3284 82.7703 45.12V43.1546C82.7703 42.8258 82.8928 42.5087 83.1146 42.2654L94.3151 29.9663C94.8071 29.4261 95.6447 29.3862 96.1857 29.8774L97.1657 30.7667C97.7067 31.2578 97.7464 32.0939 97.2544 32.6342L85.0746 46.0093Z" fill="white"/>
</svg>
