<svg width="148" height="59" viewBox="0 0 148 59" fill="none" xmlns="http://www.w3.org/2000/svg">
<path fill-rule="evenodd" clip-rule="evenodd" d="M125.586 48.8284C125.211 48.4534 125 47.9447 125 47.4142V44.5858C125 42.804 127.154 41.9117 128.414 43.1716L140.828 55.5858C142.088 56.8457 141.196 59 139.414 59H136.586C136.055 59 135.547 58.7893 135.172 58.4142L125.586 48.8284ZM5 53C3.89543 53 3 53.8954 3 55L3 57C3 58.1046 3.89543 59 5 59L35.025 59C46.0592 58.9865 55 50.0374 55 39V37C55 25.9543 46.0457 17 35 17L27 17C25.8954 17 25 17.8954 25 19V21C25 22.1046 25.8954 23 27 23L35 23C42.732 23 49 29.268 49 37V39C49 46.732 42.732 53 35 53L5 53ZM62 44V57C62 58.1046 62.8954 59 64 59H66C67.1046 59 68 58.1046 68 57V46C68 44.8954 68.8954 44 70 44L94 44C95.1046 44 96 43.1046 96 42V38V31V27C96 25.8954 95.1046 25 94 25H70C68.8954 25 68 24.1046 68 23V20C68 18.8954 68.8954 18 70 18L105 18C106.105 18 107 17.1046 107 16V13V12V8.00001C107 6.89544 107.895 6.00001 109 6.00001L118 6.00001C118.552 6.00001 119 5.55229 119 5V5V2.00001C119 0.895444 118.105 1.28746e-05 117 1.28746e-05H107C107 1.28746e-05 107 9.99253e-06 107 6.4373e-06V6.4373e-06C107 2.88208e-06 107 0 107 0H101C101 0 101 2.88208e-06 101 6.4373e-06V6.4373e-06C101 9.99253e-06 101 1.28746e-05 101 1.28746e-05H20C20 1.28746e-05 20 1.23885e-05 20 1.21593e-05V1.21593e-05C20 1.19302e-05 20 1.14441e-05 20 1.14441e-05C8.95431 1.11273e-05 0 8.95432 0 20C0 31.0457 8.9543 40 20 40L28 40C29.1046 40 30 39.1046 30 38V36C30 34.8954 29.1046 34 28 34L20 34C12.268 34 6 27.732 6 20C6 12.268 12.268 6.00001 20 6.00001L99 6V6C100.105 6 101 6.89543 101 8V10C101 11.1046 100.105 12 99 12L64 12C62.8954 12 62 12.8954 62 14V18V25V29C62 30.1046 62.8954 31 64 31L88 31C89.1046 31 90 31.8954 90 33V36C90 37.1046 89.1046 38 88 38H64C62.8954 38 62 38.8954 62 40V42V44ZM115 12C113.895 12 113 12.8954 113 14V57C113 58.1046 113.895 59 115 59H118C118.552 59 119 58.5523 119 58V58V42.2427V27.2402V14C119 12.8954 118.105 12 117 12H115ZM128.48 25.732C127.25 27.0846 125 26.2147 125 24.3866V21.4134C125 20.9159 125.185 20.4362 125.52 20.0681L142.435 1.46188C143.178 0.64456 144.443 0.584326 145.26 1.32734L146.74 2.67269C147.557 3.4157 147.617 4.68059 146.874 5.49791L128.48 25.732Z" fill="white"/>
</svg>
