<svg width="25" height="24" viewBox="0 0 25 24" fill="none" xmlns="http://www.w3.org/2000/svg">
<path d="M24.125 0.147321C24.4197 0.361607 24.5402 0.647321 24.4866 1.00446L21.0581 21.5759C21.0134 21.8348 20.8706 22.0357 20.6295 22.1786C20.5045 22.25 20.3661 22.2857 20.2143 22.2857C20.1161 22.2857 20.009 22.2634 19.8929 22.2188L13.8259 19.7411L10.5848 23.692C10.4241 23.8973 10.2054 24 9.92859 24C9.81252 24 9.71431 23.9821 9.63395 23.9464C9.46431 23.8839 9.32815 23.779 9.22547 23.6317C9.12279 23.4844 9.07145 23.3214 9.07145 23.1429V18.4688L20.6429 4.28571L6.32592 16.6741L1.03574 14.5045C0.70538 14.3795 0.526809 14.1339 0.500023 13.7679C0.482166 13.4107 0.625023 13.1473 0.928595 12.9777L23.2143 0.120536C23.3482 0.0401786 23.4911 0 23.6429 0C23.8215 0 23.9822 0.0491071 24.125 0.147321Z" fill="white"/>
</svg>
